<?xml version="1.0" encoding="UTF-8" standalone="no"?>
<svg
   xmlns:dc="http://purl.org/dc/elements/1.1/"
   xmlns:cc="http://creativecommons.org/ns#"
   xmlns:rdf="http://www.w3.org/1999/02/22-rdf-syntax-ns#"
   xmlns:svg="http://www.w3.org/2000/svg"
   xmlns="http://www.w3.org/2000/svg"
   version="1.1"
   id="svg2"
   xml:space="preserve"
   width="500"
   height="200"
   viewBox="0 0 499.99998 199.99999"><metadata
     id="metadata8"><rdf:RDF><cc:Work
         rdf:about=""><dc:format>image/svg+xml</dc:format><dc:type
           rdf:resource="http://purl.org/dc/dcmitype/StillImage" /><dc:title></dc:title></cc:Work></rdf:RDF></metadata><defs
     id="defs6" /><g
     id="g10"
     transform="matrix(1.3333333,0,0,-1.3333333,0,1722.7867)"><g
       id="g2635"
       transform="matrix(1.1340585,0,0,1.1340585,856.01674,-281.36767)"><path
         d="m -728.86484,1363.3269 c -4.557,-4.64 -8.679,-10.02 -12.241,-16.14 l 48.967,-20.59 -36.726,36.73"
         style="fill:#f04125;fill-opacity:1;fill-rule:nonzero;stroke:none;stroke-width:0.1"
         id="path14" /><path
         d="m -686.15384,1384.1069 c -6.806,-0.7 -13.454,-2.39 -19.772,-5.07 l 19.772,-48.46 v 53.53"
         style="fill:#f04125;fill-opacity:1;fill-rule:nonzero;stroke:none;stroke-width:0.1"
         id="path16" /><path
         d="m -742.86684,1344.0069 c -2.105,-3.99 -3.9909,-8.25 -5.6162,-12.8 -0.9598,-2.68 -1.6985,-5.37 -2.209,-8.03 h 57.3582 l -49.533,20.83"
         style="fill:#f04125;fill-opacity:1;fill-rule:nonzero;stroke:none;stroke-width:0.1"
         id="path18" /><path
         d="m -751.24164,1319.5569 c -0.861,-7.65 0.2586,-15.1 3.6746,-22.03 l 54.0012,22.03 h -57.6758"
         style="fill:#f04125;fill-opacity:1;fill-rule:nonzero;stroke:none;stroke-width:0.1"
         id="path20" /><path
         d="m -745.80884,1294.3269 c 1.03,-1.68 2.202,-3.33 3.528,-4.94 3.621,-4.4 7.396,-8.44 11.355,-12.04 l 38.951,38.95 -53.834,-21.97"
         style="fill:#f04125;fill-opacity:1;fill-rule:nonzero;stroke:none;stroke-width:0.1"
         id="path22" /><path
         d="m -636.73784,1371.5269 c -6.638,4.26 -13.534,7.46 -20.515,9.61 l -21.848,-51.97 42.363,42.36"
         style="fill:#f04125;fill-opacity:1;fill-rule:nonzero;stroke:none;stroke-width:0.1"
         id="path24" /><path
         d="m -620.62884,1349.3169 c -1.933,7.83 -5.527,14.89 -12.977,20.12 -0.021,0.01 -0.042,0.03 -0.063,0.04 l -43.051,-43.05 56.091,22.89"
         style="fill:#f04125;fill-opacity:1;fill-rule:nonzero;stroke:none;stroke-width:0.1"
         id="path26" /><path
         d="m -617.19484,1323.1769 c 0.041,5.11 -1.126,10.98 -1.823,16.86 -0.227,1.92 -0.5,3.82 -0.843,5.68 l -55.247,-22.54 h 57.913"
         style="fill:#f04125;fill-opacity:1;fill-rule:nonzero;stroke:none;stroke-width:0.1"
         id="path28" /><path
         d="m -660.76284,1382.1269 c -7.266,1.87 -14.587,2.61 -21.77,2.25 v -54.03 l 21.77,51.78"
         style="fill:#f04125;fill-opacity:1;fill-rule:nonzero;stroke:none;stroke-width:0.1"
         id="path30" /><path
         d="m -728.19684,1274.9569 c 5.499,-4.64 11.354,-8.44 17.649,-11.24 l 20.955,49.84 -38.604,-38.6"
         style="fill:#f04125;fill-opacity:1;fill-rule:nonzero;stroke:none;stroke-width:0.1"
         id="path32" /><path
         d="m -709.22584,1377.5469 c -6.082,-2.96 -11.814,-6.87 -17.039,-11.7 l 36.845,-36.84 -19.806,48.54"
         style="fill:#f04125;fill-opacity:1;fill-rule:nonzero;stroke:none;stroke-width:0.1"
         id="path34" /><path
         d="m -635.85584,1275.4369 c 5.64,5.02 10.081,11.05 13.199,18.02 l -53.87,22.65 40.671,-40.67"
         style="fill:#f04125;fill-opacity:1;fill-rule:nonzero;stroke:none;stroke-width:0.1"
         id="path36" /><path
         d="m -658.46084,1262.7069 c 7.557,2.54 14.195,6.03 19.81,10.41 l -40.635,40.63 20.825,-51.04"
         style="fill:#f04125;fill-opacity:1;fill-rule:nonzero;stroke:none;stroke-width:0.1"
         id="path38" /><path
         d="m -675.38084,1319.5569 54.094,-22.74 c 2.52,6.78 3.865,14.38 3.93,22.74 h -58.024"
         style="fill:#f04125;fill-opacity:1;fill-rule:nonzero;stroke:none;stroke-width:0.1"
         id="path40" /><path
         d="m -707.19984,1262.3369 c 6.523,-2.47 13.51,-3.88 21.046,-4.06 v 54.12 l -21.046,-50.06"
         style="fill:#f04125;fill-opacity:1;fill-rule:nonzero;stroke:none;stroke-width:0.1"
         id="path42" /><path
         d="m -682.53284,1258.2969 c 3.838,0.11 7.813,0.53 11.94,1.3 2.998,0.55 5.886,1.23 8.662,2.03 l -20.602,50.49 v -53.82"
         style="fill:#f04125;fill-opacity:1;fill-rule:nonzero;stroke:none;stroke-width:0.1"
         id="path44" /><path
         d="m -684.37184,1316.6269 -1.782,-4.23 v -54.12 c 1.193,-0.02 2.4,-0.02 3.621,0.02 v 53.82 l -1.839,4.51"
         style="fill:#c997d1;fill-opacity:1;fill-rule:nonzero;stroke:none;stroke-width:0.1"
         id="path46" /><path
         d="m -684.37184,1316.6269 -1.782,-4.23 v -54.12 c 1.193,-0.02 2.4,-0.02 3.621,0.02 v 53.82 z"
         style="fill:none;stroke:#ca97d2;stroke-width:0.220354;stroke-linecap:butt;stroke-linejoin:miter;stroke-miterlimit:10;stroke-dasharray:none;stroke-opacity:1"
         id="path48" /><path
         d="m -684.32184,1326.0869 1.789,4.26 v 54.03 c -1.211,-0.06 -2.418,-0.15 -3.621,-0.27 v -53.53 l 1.832,-4.49"
         style="fill:#c997d1;fill-opacity:1;fill-rule:nonzero;stroke:none;stroke-width:0.1"
         id="path50" /><path
         d="m -684.32184,1326.0869 1.789,4.26 v 54.03 c -1.211,-0.06 -2.418,-0.15 -3.621,-0.27 v -53.53 z"
         style="fill:none;stroke:#ca97d2;stroke-width:0.220354;stroke-linecap:butt;stroke-linejoin:miter;stroke-miterlimit:10;stroke-dasharray:none;stroke-opacity:1"
         id="path52" /><path
         d="m -679.61684,1321.3369 4.236,-1.78 h 58.024 c 0.002,0.28 0.007,0.55 0.006,0.83 0.104,0.9 0.149,1.83 0.156,2.79 h -57.913 l -4.509,-1.84"
         style="fill:#c997d1;fill-opacity:1;fill-rule:nonzero;stroke:none;stroke-width:0.1"
         id="path54" /><path
         d="m -679.61684,1321.3369 4.236,-1.78 h 58.024 c 0.002,0.28 0.007,0.55 0.006,0.83 0.104,0.9 0.149,1.83 0.156,2.79 h -57.913 z"
         style="fill:none;stroke:#ca97d2;stroke-width:0.220354;stroke-linecap:butt;stroke-linejoin:miter;stroke-miterlimit:10;stroke-dasharray:none;stroke-opacity:1"
         id="path56" /><path
         d="m -689.07784,1321.3869 -4.256,1.79 h -57.3582 c -0.2321,-1.21 -0.4145,-2.42 -0.5496,-3.62 h 57.6758 l 4.488,1.83"
         style="fill:#c997d1;fill-opacity:1;fill-rule:nonzero;stroke:none;stroke-width:0.1"
         id="path58" /><path
         d="m -689.07784,1321.3869 -4.256,1.79 h -57.3582 c -0.2321,-1.21 -0.4145,-2.42 -0.5496,-3.62 h 57.6758 z"
         style="fill:none;stroke:#ca97d2;stroke-width:0.220354;stroke-linecap:butt;stroke-linejoin:miter;stroke-miterlimit:10;stroke-dasharray:none;stroke-opacity:1"
         id="path60" /><path
         d="m -681.01984,1317.9969 1.734,-4.25 40.635,-40.63 c 0.962,0.75 1.894,1.52 2.795,2.32 l -40.671,40.67 -4.493,1.89"
         style="fill:#c997d1;fill-opacity:1;fill-rule:nonzero;stroke:none;stroke-width:0.1"
         id="path62" /><path
         d="m -681.01984,1317.9969 1.734,-4.25 40.635,-40.63 c 0.962,0.75 1.894,1.52 2.795,2.32 l -40.671,40.67 z"
         style="fill:none;stroke:#ca97d2;stroke-width:0.220354;stroke-linecap:butt;stroke-linejoin:miter;stroke-miterlimit:10;stroke-dasharray:none;stroke-opacity:1"
         id="path64" /><path
         d="m -687.67484,1324.7269 -1.745,4.28 -36.845,36.84 c -0.882,-0.81 -1.749,-1.65 -2.6,-2.52 l 36.726,-36.73 4.464,-1.87"
         style="fill:#c997d1;fill-opacity:1;fill-rule:nonzero;stroke:none;stroke-width:0.1"
         id="path66" /><path
         d="m -687.67484,1324.7269 -1.745,4.28 -36.845,36.84 c -0.882,-0.81 -1.749,-1.65 -2.6,-2.52 l 36.726,-36.73 z"
         style="fill:none;stroke:#ca97d2;stroke-width:0.220354;stroke-linecap:butt;stroke-linejoin:miter;stroke-miterlimit:10;stroke-dasharray:none;stroke-opacity:1"
         id="path68" /><path
         d="m -687.70984,1318.0369 -4.265,-1.74 -38.951,-38.95 c 0.9,-0.82 1.81,-1.62 2.729,-2.39 l 38.604,38.6 1.883,4.48"
         style="fill:#c997d1;fill-opacity:1;fill-rule:nonzero;stroke:none;stroke-width:0.1"
         id="path70" /><path
         d="m -687.70984,1318.0369 -4.265,-1.74 -38.951,-38.95 c 0.9,-0.82 1.81,-1.62 2.729,-2.39 l 38.604,38.6 z"
         style="fill:none;stroke:#ca97d2;stroke-width:0.220354;stroke-linecap:butt;stroke-linejoin:miter;stroke-miterlimit:10;stroke-dasharray:none;stroke-opacity:1"
         id="path72" /><path
         d="m -680.97484,1324.6869 4.265,1.74 43.051,43.05 c -1.016,0.71 -2.04,1.39 -3.069,2.05 l -42.364,-42.36 -1.883,-4.48"
         style="fill:#c997d1;fill-opacity:1;fill-rule:nonzero;stroke:none;stroke-width:0.1"
         id="path74" /><path
         d="m -680.97484,1324.6869 4.265,1.74 43.051,43.05 c -1.016,0.71 -2.04,1.39 -3.069,2.05 l -42.364,-42.36 z"
         style="fill:none;stroke:#ca97d2;stroke-width:0.220354;stroke-linecap:butt;stroke-linejoin:miter;stroke-miterlimit:10;stroke-dasharray:none;stroke-opacity:1"
         id="path76" /><path
         d="m -682.53284,1316.9969 v -4.88 l 20.602,-50.49 c 1.177,0.34 2.334,0.7 3.47,1.08 l -20.825,51.04 -3.247,3.25"
         style="fill:#421e55;fill-opacity:1;fill-rule:nonzero;stroke:none;stroke-width:0.1"
         id="path78" /><path
         d="m -682.53284,1316.9969 v -4.88 l 20.602,-50.49 c 1.177,0.34 2.334,0.7 3.47,1.08 l -20.825,51.04 z"
         style="fill:none;stroke:#421e56;stroke-width:0.220354;stroke-linecap:butt;stroke-linejoin:miter;stroke-miterlimit:10;stroke-dasharray:none;stroke-opacity:1"
         id="path80" /><path
         d="m -686.15384,1325.7369 v 4.84 l -19.772,48.46 c -1.11,-0.47 -2.211,-0.96 -3.3,-1.49 l 19.806,-48.54 3.266,-3.27"
         style="fill:#421e55;fill-opacity:1;fill-rule:nonzero;stroke:none;stroke-width:0.1"
         id="path82" /><path
         d="m -686.15384,1325.7369 v 4.84 l -19.772,48.46 c -1.11,-0.47 -2.211,-0.96 -3.3,-1.49 l 19.806,-48.54 z"
         style="fill:none;stroke:#421e56;stroke-width:0.220354;stroke-linecap:butt;stroke-linejoin:miter;stroke-miterlimit:10;stroke-dasharray:none;stroke-opacity:1"
         id="path84" /><path
         d="m -679.97284,1323.1769 h 4.865 l 55.247,22.54 c -0.224,1.21 -0.477,2.41 -0.768,3.6 l -56.091,-22.89 -3.253,-3.25"
         style="fill:#421e55;fill-opacity:1;fill-rule:nonzero;stroke:none;stroke-width:0.1"
         id="path86" /><path
         d="m -679.97284,1323.1769 h 4.865 l 55.247,22.54 c -0.224,1.21 -0.477,2.41 -0.768,3.6 l -56.091,-22.89 z"
         style="fill:none;stroke:#421e56;stroke-width:0.220354;stroke-linecap:butt;stroke-linejoin:miter;stroke-miterlimit:10;stroke-dasharray:none;stroke-opacity:1"
         id="path88" /><path
         d="m -688.71384,1319.5569 h -4.852 l -54.0012,-22.03 c 0.5304,-1.08 1.116,-2.15 1.7582,-3.2 l 53.834,21.97 3.261,3.26"
         style="fill:#421e55;fill-opacity:1;fill-rule:nonzero;stroke:none;stroke-width:0.1"
         id="path90" /><path
         d="m -688.71384,1319.5569 h -4.852 l -54.0012,-22.03 c 0.5304,-1.08 1.116,-2.15 1.7582,-3.2 l 53.834,21.97 z"
         style="fill:none;stroke:#421e56;stroke-width:0.220354;stroke-linecap:butt;stroke-linejoin:miter;stroke-miterlimit:10;stroke-dasharray:none;stroke-opacity:1"
         id="path92" /><path
         d="m -688.71384,1323.1769 -3.425,3.42 -48.967,20.59 c -0.605,-1.04 -1.189,-2.1 -1.761,-3.18 l 49.533,-20.83 h 4.62"
         style="fill:#421e55;fill-opacity:1;fill-rule:nonzero;stroke:none;stroke-width:0.1"
         id="path94" /><path
         d="m -688.71384,1323.1769 -3.425,3.42 -48.967,20.59 c -0.605,-1.04 -1.189,-2.1 -1.761,-3.18 l 49.533,-20.83 z"
         style="fill:none;stroke:#421e56;stroke-width:0.220354;stroke-linecap:butt;stroke-linejoin:miter;stroke-miterlimit:10;stroke-dasharray:none;stroke-opacity:1"
         id="path96" /><path
         d="m -679.97284,1319.5569 3.446,-3.45 53.87,-22.65 c 0.489,1.1 0.946,2.21 1.37,3.36 l -54.094,22.74 h -4.592"
         style="fill:#421e55;fill-opacity:1;fill-rule:nonzero;stroke:none;stroke-width:0.1"
         id="path98" /><path
         d="m -679.97284,1319.5569 3.446,-3.45 53.87,-22.65 c 0.489,1.1 0.946,2.21 1.37,3.36 l -54.094,22.74 z"
         style="fill:none;stroke:#421e56;stroke-width:0.220354;stroke-linecap:butt;stroke-linejoin:miter;stroke-miterlimit:10;stroke-dasharray:none;stroke-opacity:1"
         id="path100" /><path
         d="m -682.53284,1325.7369 3.432,3.43 21.848,51.97 c -1.168,0.36 -2.338,0.69 -3.51,0.99 l -21.77,-51.78 v -4.61"
         style="fill:#421e55;fill-opacity:1;fill-rule:nonzero;stroke:none;stroke-width:0.1"
         id="path102" /><path
         d="m -682.53284,1325.7369 3.432,3.43 21.848,51.97 c -1.168,0.36 -2.338,0.69 -3.51,0.99 l -21.77,-51.78 z"
         style="fill:none;stroke:#421e56;stroke-width:0.220354;stroke-linecap:butt;stroke-linejoin:miter;stroke-miterlimit:10;stroke-dasharray:none;stroke-opacity:1"
         id="path104" /><path
         d="m -686.15384,1316.9969 -3.439,-3.44 -20.955,-49.84 c 1.103,-0.49 2.218,-0.95 3.348,-1.38 l 21.046,50.06 v 4.6"
         style="fill:#421e55;fill-opacity:1;fill-rule:nonzero;stroke:none;stroke-width:0.1"
         id="path106" /><path
         d="m -686.15384,1316.9969 -3.439,-3.44 -20.955,-49.84 c 1.103,-0.49 2.218,-0.95 3.348,-1.38 l 21.046,50.06 z"
         style="fill:none;stroke:#421e56;stroke-width:0.220354;stroke-linecap:butt;stroke-linejoin:miter;stroke-miterlimit:10;stroke-dasharray:none;stroke-opacity:1"
         id="path108" /><path
         d="m -684.37184,1316.6269 1.839,-4.51 v 4.88 l -1.187,1.19 -0.652,-1.56"
         style="fill:#421e55;fill-opacity:1;fill-rule:nonzero;stroke:none;stroke-width:0.1"
         id="path110" /><path
         d="m -684.37184,1316.6269 1.839,-4.51 v 4.88 l -1.187,1.19 z"
         style="fill:none;stroke:#421e56;stroke-width:0.220354;stroke-linecap:butt;stroke-linejoin:miter;stroke-miterlimit:10;stroke-dasharray:none;stroke-opacity:1"
         id="path112" /><path
         d="m -684.32184,1326.0869 -1.832,4.49 v -4.84 l 1.184,-1.18 0.648,1.53"
         style="fill:#421e55;fill-opacity:1;fill-rule:nonzero;stroke:none;stroke-width:0.1"
         id="path114" /><path
         d="m -684.32184,1326.0869 -1.832,4.49 v -4.84 l 1.184,-1.18 z"
         style="fill:none;stroke:#421e56;stroke-width:0.220354;stroke-linecap:butt;stroke-linejoin:miter;stroke-miterlimit:10;stroke-dasharray:none;stroke-opacity:1"
         id="path116" /><path
         d="m -682.53284,1316.9969 3.247,-3.25 -1.734,4.25 -1.513,0.64 v -1.64"
         style="fill:#421e55;fill-opacity:1;fill-rule:nonzero;stroke:none;stroke-width:0.1"
         id="path118" /><path
         d="m -682.53284,1316.9969 3.247,-3.25 -1.734,4.25 -1.513,0.64 z"
         style="fill:none;stroke:#421e56;stroke-width:0.220354;stroke-linecap:butt;stroke-linejoin:miter;stroke-miterlimit:10;stroke-dasharray:none;stroke-opacity:1"
         id="path120" /><path
         d="m -686.15384,1325.7369 -3.266,3.27 1.745,-4.28 1.521,-0.64 v 1.65"
         style="fill:#421e55;fill-opacity:1;fill-rule:nonzero;stroke:none;stroke-width:0.1"
         id="path122" /><path
         d="m -686.15384,1325.7369 -3.266,3.27 1.745,-4.28 1.521,-0.64 z"
         style="fill:none;stroke:#421e56;stroke-width:0.220354;stroke-linecap:butt;stroke-linejoin:miter;stroke-miterlimit:10;stroke-dasharray:none;stroke-opacity:1"
         id="path124" /><path
         d="m -685.31484,1323.7369 0.345,0.82 -1.184,1.18 v -1.65 l 0.839,-0.35"
         style="fill:#421e55;fill-opacity:1;fill-rule:nonzero;stroke:none;stroke-width:0.1"
         id="path126" /><path
         d="m -685.31484,1323.7369 0.345,0.82 -1.184,1.18 v -1.65 z"
         style="fill:none;stroke:#421e56;stroke-width:0.220354;stroke-linecap:butt;stroke-linejoin:miter;stroke-miterlimit:10;stroke-dasharray:none;stroke-opacity:1"
         id="path128" /><path
         d="m -683.37984,1318.9869 -0.34,-0.8 1.187,-1.19 v 1.64 l -0.847,0.35"
         style="fill:#421e55;fill-opacity:1;fill-rule:nonzero;stroke:none;stroke-width:0.1"
         id="path130" /><path
         d="m -683.37984,1318.9869 -0.34,-0.8 1.187,-1.19 v 1.64 z"
         style="fill:none;stroke:#421e56;stroke-width:0.220354;stroke-linecap:butt;stroke-linejoin:miter;stroke-miterlimit:10;stroke-dasharray:none;stroke-opacity:1"
         id="path132" /><path
         d="m -689.07784,1321.3869 -4.488,-1.83 h 4.852 l 1.182,1.18 -1.546,0.65"
         style="fill:#421e55;fill-opacity:1;fill-rule:nonzero;stroke:none;stroke-width:0.1"
         id="path134" /><path
         d="m -689.07784,1321.3869 -4.488,-1.83 h 4.852 l 1.182,1.18 z"
         style="fill:none;stroke:#421e56;stroke-width:0.220354;stroke-linecap:butt;stroke-linejoin:miter;stroke-miterlimit:10;stroke-dasharray:none;stroke-opacity:1"
         id="path136" /><path
         d="m -679.61684,1321.3369 4.509,1.84 h -4.865 l -1.189,-1.19 1.545,-0.65"
         style="fill:#421e55;fill-opacity:1;fill-rule:nonzero;stroke:none;stroke-width:0.1"
         id="path138" /><path
         d="m -679.61684,1321.3369 4.509,1.84 h -4.865 l -1.189,-1.19 z"
         style="fill:none;stroke:#421e56;stroke-width:0.220354;stroke-linecap:butt;stroke-linejoin:miter;stroke-miterlimit:10;stroke-dasharray:none;stroke-opacity:1"
         id="path140" /><path
         d="m -679.97284,1323.1769 3.253,3.25 -4.265,-1.74 -0.636,-1.51 h 1.648"
         style="fill:#421e55;fill-opacity:1;fill-rule:nonzero;stroke:none;stroke-width:0.1"
         id="path142" /><path
         d="m -679.97284,1323.1769 3.253,3.25 -4.265,-1.74 -0.636,-1.51 z"
         style="fill:none;stroke:#421e56;stroke-width:0.220354;stroke-linecap:butt;stroke-linejoin:miter;stroke-miterlimit:10;stroke-dasharray:none;stroke-opacity:1"
         id="path144" /><path
         d="m -688.71384,1319.5569 -3.261,-3.26 4.265,1.74 0.639,1.52 h -1.643"
         style="fill:#421e55;fill-opacity:1;fill-rule:nonzero;stroke:none;stroke-width:0.1"
         id="path146" /><path
         d="m -688.71384,1319.5569 -3.261,-3.26 4.265,1.74 0.639,1.52 z"
         style="fill:none;stroke:#421e56;stroke-width:0.220354;stroke-linecap:butt;stroke-linejoin:miter;stroke-miterlimit:10;stroke-dasharray:none;stroke-opacity:1"
         id="path148" /><path
         d="m -681.97684,1322.3269 0.815,-0.34 1.189,1.19 h -1.648 l -0.356,-0.85"
         style="fill:#421e55;fill-opacity:1;fill-rule:nonzero;stroke:none;stroke-width:0.1"
         id="path150" /><path
         d="m -681.97684,1322.3269 0.815,-0.34 1.189,1.19 h -1.648 z"
         style="fill:none;stroke:#421e56;stroke-width:0.220354;stroke-linecap:butt;stroke-linejoin:miter;stroke-miterlimit:10;stroke-dasharray:none;stroke-opacity:1"
         id="path152" /><path
         d="m -686.71784,1320.3969 -0.814,0.34 -1.182,-1.18 h 1.643 l 0.353,0.84"
         style="fill:#421e55;fill-opacity:1;fill-rule:nonzero;stroke:none;stroke-width:0.1"
         id="path154" /><path
         d="m -686.71784,1320.3969 -0.814,0.34 -1.182,-1.18 h 1.643 z"
         style="fill:none;stroke:#421e56;stroke-width:0.220354;stroke-linecap:butt;stroke-linejoin:miter;stroke-miterlimit:10;stroke-dasharray:none;stroke-opacity:1"
         id="path156" /><path
         d="m -681.13484,1320.7169 1.162,-1.16 h 4.592 l -4.236,1.78 -1.518,-0.62"
         style="fill:#421e55;fill-opacity:1;fill-rule:nonzero;stroke:none;stroke-width:0.1"
         id="path158" /><path
         d="m -681.13484,1320.7169 1.162,-1.16 h 4.592 l -4.236,1.78 z"
         style="fill:none;stroke:#421e56;stroke-width:0.220354;stroke-linecap:butt;stroke-linejoin:miter;stroke-miterlimit:10;stroke-dasharray:none;stroke-opacity:1"
         id="path160" /><path
         d="m -688.71384,1323.1769 h -4.62 l 4.256,-1.79 1.53,0.62 -1.166,1.17"
         style="fill:#421e55;fill-opacity:1;fill-rule:nonzero;stroke:none;stroke-width:0.1"
         id="path162" /><path
         d="m -688.71384,1323.1769 h -4.62 l 4.256,-1.79 1.53,0.62 z"
         style="fill:none;stroke:#421e56;stroke-width:0.220354;stroke-linecap:butt;stroke-linejoin:miter;stroke-miterlimit:10;stroke-dasharray:none;stroke-opacity:1"
         id="path164" /><path
         d="m -681.01984,1317.9969 4.493,-1.89 -3.446,3.45 h -1.682 l 0.635,-1.56"
         style="fill:#421e55;fill-opacity:1;fill-rule:nonzero;stroke:none;stroke-width:0.1"
         id="path166" /><path
         d="m -681.01984,1317.9969 4.493,-1.89 -3.446,3.45 h -1.682 z"
         style="fill:none;stroke:#421e56;stroke-width:0.220354;stroke-linecap:butt;stroke-linejoin:miter;stroke-miterlimit:10;stroke-dasharray:none;stroke-opacity:1"
         id="path168" /><path
         d="m -687.67484,1324.7269 -4.464,1.87 3.425,-3.42 h 1.671 l -0.632,1.55"
         style="fill:#421e55;fill-opacity:1;fill-rule:nonzero;stroke:none;stroke-width:0.1"
         id="path170" /><path
         d="m -687.67484,1324.7269 -4.464,1.87 3.425,-3.42 h 1.671 z"
         style="fill:none;stroke:#421e56;stroke-width:0.220354;stroke-linecap:butt;stroke-linejoin:miter;stroke-miterlimit:10;stroke-dasharray:none;stroke-opacity:1"
         id="path172" /><path
         d="m -686.70684,1322.3569 -0.336,0.82 h -1.671 l 1.166,-1.17 0.841,0.35"
         style="fill:#421e55;fill-opacity:1;fill-rule:nonzero;stroke:none;stroke-width:0.1"
         id="path174" /><path
         d="m -686.70684,1322.3569 -0.336,0.82 h -1.671 l 1.166,-1.17 z"
         style="fill:none;stroke:#421e56;stroke-width:0.220354;stroke-linecap:butt;stroke-linejoin:miter;stroke-miterlimit:10;stroke-dasharray:none;stroke-opacity:1"
         id="path176" /><path
         d="m -681.98684,1320.3669 0.332,-0.81 h 1.682 l -1.162,1.16 -0.852,-0.35"
         style="fill:#421e55;fill-opacity:1;fill-rule:nonzero;stroke:none;stroke-width:0.1"
         id="path178" /><path
         d="m -681.98684,1320.3669 0.332,-0.81 h 1.682 l -1.162,1.16 z"
         style="fill:none;stroke:#421e56;stroke-width:0.220354;stroke-linecap:butt;stroke-linejoin:miter;stroke-miterlimit:10;stroke-dasharray:none;stroke-opacity:1"
         id="path180" /><path
         d="m -686.15384,1323.1769 v 0.91 l -1.521,0.64 0.632,-1.55 h 0.889"
         style="fill:#421e55;fill-opacity:1;fill-rule:nonzero;stroke:none;stroke-width:0.1"
         id="path182" /><path
         d="m -686.15384,1323.1769 v 0.91 l -1.521,0.64 0.632,-1.55 z"
         style="fill:none;stroke:#421e56;stroke-width:0.220354;stroke-linecap:butt;stroke-linejoin:miter;stroke-miterlimit:10;stroke-dasharray:none;stroke-opacity:1"
         id="path184" /><path
         d="m -682.53284,1319.5569 v -0.92 l 1.513,-0.64 -0.635,1.56 h -0.878"
         style="fill:#421e55;fill-opacity:1;fill-rule:nonzero;stroke:none;stroke-width:0.1"
         id="path186" /><path
         d="m -682.53284,1319.5569 v -0.92 l 1.513,-0.64 -0.635,1.56 z"
         style="fill:none;stroke:#421e56;stroke-width:0.220354;stroke-linecap:butt;stroke-linejoin:miter;stroke-miterlimit:10;stroke-dasharray:none;stroke-opacity:1"
         id="path188" /><path
         d="m -686.90284,1321.3669 -0.645,0.64 -1.53,-0.62 1.546,-0.65 0.629,0.63"
         style="fill:#421e55;fill-opacity:1;fill-rule:nonzero;stroke:none;stroke-width:0.1"
         id="path190" /><path
         d="m -686.90284,1321.3669 -0.645,0.64 -1.53,-0.62 1.546,-0.65 z"
         style="fill:none;stroke:#421e56;stroke-width:0.220354;stroke-linecap:butt;stroke-linejoin:miter;stroke-miterlimit:10;stroke-dasharray:none;stroke-opacity:1"
         id="path192" /><path
         d="m -681.78284,1321.3669 0.648,-0.65 1.518,0.62 -1.545,0.65 -0.621,-0.62"
         style="fill:#421e55;fill-opacity:1;fill-rule:nonzero;stroke:none;stroke-width:0.1"
         id="path194" /><path
         d="m -681.78284,1321.3669 0.648,-0.65 1.518,0.62 -1.545,0.65 z"
         style="fill:none;stroke:#421e56;stroke-width:0.220354;stroke-linecap:butt;stroke-linejoin:miter;stroke-miterlimit:10;stroke-dasharray:none;stroke-opacity:1"
         id="path196" /><path
         d="m -682.53284,1325.7369 v 4.61 l -1.789,-4.26 0.621,-1.52 1.168,1.17"
         style="fill:#421e55;fill-opacity:1;fill-rule:nonzero;stroke:none;stroke-width:0.1"
         id="path198" /><path
         d="m -682.53284,1325.7369 v 4.61 l -1.789,-4.26 0.621,-1.52 z"
         style="fill:none;stroke:#421e56;stroke-width:0.220354;stroke-linecap:butt;stroke-linejoin:miter;stroke-miterlimit:10;stroke-dasharray:none;stroke-opacity:1"
         id="path200" /><path
         d="m -686.15384,1316.9969 v -4.6 l 1.782,4.23 -0.622,1.53 -1.16,-1.16"
         style="fill:#421e55;fill-opacity:1;fill-rule:nonzero;stroke:none;stroke-width:0.1"
         id="path202" /><path
         d="m -686.15384,1316.9969 v -4.6 l 1.782,4.23 -0.622,1.53 z"
         style="fill:none;stroke:#421e56;stroke-width:0.220354;stroke-linecap:butt;stroke-linejoin:miter;stroke-miterlimit:10;stroke-dasharray:none;stroke-opacity:1"
         id="path204" /><path
         d="m -687.70984,1318.0369 -1.883,-4.48 3.439,3.44 v 1.67 l -1.556,-0.63"
         style="fill:#421e55;fill-opacity:1;fill-rule:nonzero;stroke:none;stroke-width:0.1"
         id="path206" /><path
         d="m -687.70984,1318.0369 -1.883,-4.48 3.439,3.44 v 1.67 z"
         style="fill:none;stroke:#421e56;stroke-width:0.220354;stroke-linecap:butt;stroke-linejoin:miter;stroke-miterlimit:10;stroke-dasharray:none;stroke-opacity:1"
         id="path208" /><path
         d="m -680.98484,1324.6869 1.884,4.48 -3.432,-3.43 v -1.68 l 1.548,0.63"
         style="fill:#421e55;fill-opacity:1;fill-rule:nonzero;stroke:none;stroke-width:0.1"
         id="path210" /><path
         d="m -680.98484,1324.6869 1.884,4.48 -3.432,-3.43 v -1.68 z"
         style="fill:none;stroke:#421e56;stroke-width:0.220354;stroke-linecap:butt;stroke-linejoin:miter;stroke-miterlimit:10;stroke-dasharray:none;stroke-opacity:1"
         id="path212" /><path
         d="m -685.33984,1319.0069 -0.814,-0.34 v -1.67 l 1.16,1.16 -0.346,0.85"
         style="fill:#421e55;fill-opacity:1;fill-rule:nonzero;stroke:none;stroke-width:0.1"
         id="path214" /><path
         d="m -685.33984,1319.0069 -0.814,-0.34 v -1.67 l 1.16,1.16 z"
         style="fill:none;stroke:#421e56;stroke-width:0.220354;stroke-linecap:butt;stroke-linejoin:miter;stroke-miterlimit:10;stroke-dasharray:none;stroke-opacity:1"
         id="path216" /><path
         d="m -683.35484,1323.7169 0.822,0.34 v 1.68 l -1.168,-1.17 0.346,-0.85"
         style="fill:#421e55;fill-opacity:1;fill-rule:nonzero;stroke:none;stroke-width:0.1"
         id="path218" /><path
         d="m -683.35484,1323.7169 0.822,0.34 v 1.68 l -1.168,-1.17 z"
         style="fill:none;stroke:#421e56;stroke-width:0.220354;stroke-linecap:butt;stroke-linejoin:miter;stroke-miterlimit:10;stroke-dasharray:none;stroke-opacity:1"
         id="path220" /><path
         d="m -684.34284,1323.9269 0.642,0.64 -0.621,1.52 -0.648,-1.53 0.627,-0.63"
         style="fill:#421e55;fill-opacity:1;fill-rule:nonzero;stroke:none;stroke-width:0.1"
         id="path222" /><path
         d="m -684.34284,1323.9269 0.642,0.64 -0.621,1.52 -0.648,-1.53 z"
         style="fill:none;stroke:#421e56;stroke-width:0.220354;stroke-linecap:butt;stroke-linejoin:miter;stroke-miterlimit:10;stroke-dasharray:none;stroke-opacity:1"
         id="path224" /><path
         d="m -684.34284,1318.8069 -0.651,-0.65 0.622,-1.53 0.652,1.56 -0.623,0.62"
         style="fill:#421e55;fill-opacity:1;fill-rule:nonzero;stroke:none;stroke-width:0.1"
         id="path226" /><path
         d="m -684.34284,1318.8069 -0.651,-0.65 0.622,-1.53 0.652,1.56 z"
         style="fill:none;stroke:#421e56;stroke-width:0.220354;stroke-linecap:butt;stroke-linejoin:miter;stroke-miterlimit:10;stroke-dasharray:none;stroke-opacity:1"
         id="path228" /><path
         d="m -686.15384,1319.5569 h -0.917 l -0.639,-1.52 1.556,0.63 v 0.89"
         style="fill:#421e55;fill-opacity:1;fill-rule:nonzero;stroke:none;stroke-width:0.1"
         id="path230" /><path
         d="m -686.15384,1319.5569 h -0.917 l -0.639,-1.52 1.556,0.63 z"
         style="fill:none;stroke:#421e56;stroke-width:0.220354;stroke-linecap:butt;stroke-linejoin:miter;stroke-miterlimit:10;stroke-dasharray:none;stroke-opacity:1"
         id="path232" /><path
         d="m -682.53284,1323.1769 h 0.912 l 0.636,1.51 -1.548,-0.63 v -0.88"
         style="fill:#421e55;fill-opacity:1;fill-rule:nonzero;stroke:none;stroke-width:0.1"
         id="path234" /><path
         d="m -682.53284,1323.1769 h 0.912 l 0.636,1.51 -1.548,-0.63 z"
         style="fill:none;stroke:#421e56;stroke-width:0.220354;stroke-linecap:butt;stroke-linejoin:miter;stroke-miterlimit:10;stroke-dasharray:none;stroke-opacity:1"
         id="path236" /><path
         d="m -587.17784,1359.5569 h 2.924 c 1.82,0 3.127,0.37 3.919,1.1 0.793,0.72 1.189,1.93 1.189,3.63 0,1.71 -0.381,2.91 -1.141,3.61 -0.76,0.69 -2.061,1.04 -3.903,1.04 h -2.988 z m 13.718,-10.89 h -5.815 l -2.538,4.82 -1.477,2.25 h -3.888 v -2.25 l 0.322,-4.82 h -4.595 l 0.29,4.82 v 14.62 l -0.29,4.66 h 8.418 c 2.613,0 4.61,-0.72 5.991,-2.16 1.382,-1.43 2.073,-3.54 2.073,-6.32 0,-1.83 -0.381,-3.39 -1.141,-4.71 -0.761,-1.32 -1.805,-2.31 -3.133,-2.97 l 2.057,-3.12 3.726,-4.82"
         style="fill:#421e55;fill-opacity:1;fill-rule:nonzero;stroke:none;stroke-width:0.1"
         id="path238" /><path
         d="m -556.14284,1352.4869 -0.611,-3.82 h -13.943 l 0.289,4.82 v 14.62 l -0.289,4.66 h 14.264 l -0.61,-3.83 h -9.381 v -5.94 h 8.482 l -0.611,-3.82 h -7.871 v -6.69 h 10.281"
         style="fill:#421e55;fill-opacity:1;fill-rule:nonzero;stroke:none;stroke-width:0.1"
         id="path240" /><path
         d="m -541.79884,1353.3269 c 0.717,0.56 1.237,1.44 1.558,2.65 0.321,1.21 0.482,2.82 0.482,4.84 0,2.09 -0.161,3.73 -0.482,4.89 -0.321,1.17 -0.836,2 -1.542,2.49 -0.707,0.5 -1.682,0.74 -2.924,0.74 h -3.662 v -16.45 h 3.662 c 1.221,0 2.19,0.28 2.908,0.84 z m 4.048,16.51 c 1.466,-1.95 2.201,-4.96 2.201,-9.02 0,-4.1 -0.74,-7.14 -2.217,-9.14 -1.478,-2.01 -3.792,-3.01 -6.94,-3.01 h -7.967 l 0.289,4.82 v 14.62 l -0.289,4.66 h 7.967 c 3.17,0 5.488,-0.98 6.956,-2.93"
         style="fill:#421e55;fill-opacity:1;fill-rule:nonzero;stroke:none;stroke-width:0.1"
         id="path242" /><path
         d="m -517.14184,1352.4869 -0.61,-3.82 h -13.943 l 0.289,4.82 v 14.62 l -0.289,4.66 h 14.264 l -0.611,-3.83 h -9.38 v -5.94 h 8.481 l -0.61,-3.82 h -7.871 v -6.69 h 10.28"
         style="fill:#421e55;fill-opacity:1;fill-rule:nonzero;stroke:none;stroke-width:0.1"
         id="path244" /><path
         d="m -572.83284,1324.4469 v 16.35 l -5.108,-21.17 h -5.301 l -5.076,21.27 v -16.45 l 0.257,-4.82 h -4.048 l 0.289,4.82 v 14.62 l -0.192,4.65 h 7.164 l 4.562,-20.23 4.69,20.23 h 7.004 l -0.193,-4.65 v -14.62 l 0.289,-4.82 h -4.594 l 0.257,4.82"
         style="fill:#421e55;fill-opacity:1;fill-rule:nonzero;stroke:none;stroke-width:0.1"
         id="path246" /><path
         d="m -563.64484,1324.4469 v 14.62 l -0.289,4.65 h 4.53 l -0.257,-4.65 v -14.62 l 0.257,-4.82 h -4.53 l 0.289,4.82"
         style="fill:#421e55;fill-opacity:1;fill-rule:nonzero;stroke:none;stroke-width:0.1"
         id="path248" /><path
         d="m -537.97584,1324.3869 0.257,-4.76 h -6.49 l -6.843,20.11 v -15.29 l 0.257,-4.82 h -4.048 l 0.29,4.82 v 14.62 l -0.29,4.65 h 6.522 l 6.843,-20.11 v 15.39 l -0.289,4.72 h 4.048 l -0.257,-4.72 v -14.61"
         style="fill:#421e55;fill-opacity:1;fill-rule:nonzero;stroke:none;stroke-width:0.1"
         id="path250" /><path
         d="m -518.60384,1323.4469 -0.611,-3.82 h -13.943 l 0.289,4.82 v 14.62 l -0.289,4.65 h 14.264 l -0.61,-3.82 h -9.381 v -5.94 h 8.482 l -0.611,-3.82 h -7.871 v -6.69 h 10.281"
         style="fill:#421e55;fill-opacity:1;fill-rule:nonzero;stroke:none;stroke-width:0.1"
         id="path252" /><path
         d="m -514.84584,1324.4469 v 14.62 l -0.289,4.65 h 4.53 l -0.257,-4.65 v -14.62 l 0.257,-4.82 h -4.53 l 0.289,4.82"
         style="fill:#421e55;fill-opacity:1;fill-rule:nonzero;stroke:none;stroke-width:0.1"
         id="path254" /><path
         d="m -501.77084,1330.5169 h 2.924 c 1.82,0 3.126,0.36 3.919,1.09 0.792,0.73 1.189,1.94 1.189,3.63 0,1.72 -0.381,2.92 -1.141,3.62 -0.76,0.69 -2.061,1.04 -3.903,1.04 h -2.988 z m 13.718,-10.89 h -5.815 l -2.538,4.82 -1.477,2.25 h -3.888 v -2.25 l 0.322,-4.82 h -4.595 l 0.29,4.82 v 14.62 l -0.29,4.65 h 8.418 c 2.613,0 4.61,-0.71 5.991,-2.15 1.382,-1.43 2.072,-3.54 2.072,-6.33 0,-1.82 -0.38,-3.39 -1.14,-4.7 -0.761,-1.32 -1.805,-2.31 -3.133,-2.97 l 2.057,-3.12 3.726,-4.82"
         style="fill:#421e55;fill-opacity:1;fill-rule:nonzero;stroke:none;stroke-width:0.1"
         id="path256" /><path
         d="m -474.36584,1328.8469 -3.149,10.83 -3.052,-10.89 z m 7.035,-9.22 h -4.883 l -0.899,4.82 -0.161,0.58 -8.353,-0.07 -0.161,-0.51 -0.931,-4.82 h -4.337 l 1.606,4.82 4.176,14.46 1.093,4.81 h 5.847 l 1.06,-4.81 4.337,-14.46 1.606,-4.82"
         style="fill:#421e55;fill-opacity:1;fill-rule:nonzero;stroke:none;stroke-width:0.1"
         id="path258" /><path
         d="m -453.56284,1322.4469 c 0.435,0.34 0.75,0.88 0.944,1.61 0.195,0.73 0.292,1.71 0.292,2.93 0,1.27 -0.097,2.26 -0.292,2.97 -0.194,0.71 -0.506,1.21 -0.934,1.51 -0.428,0.3 -1.019,0.44 -1.772,0.44 h -2.219 v -9.96 h 2.219 c 0.74,0 1.327,0.17 1.762,0.5 z m 2.453,10.01 c 0.889,-1.18 1.334,-3.01 1.334,-5.47 0,-2.48 -0.448,-4.33 -1.344,-5.54 -0.895,-1.21 -2.297,-1.82 -4.205,-1.82 h -4.828 l 0.175,2.92 v 8.86 l -0.175,2.82 h 4.828 c 1.921,0 3.326,-0.59 4.215,-1.77"
         style="fill:#421e55;fill-opacity:1;fill-rule:nonzero;stroke:none;stroke-width:0.1"
         id="path260" /><path
         d="m -438.62084,1321.9469 -0.37,-2.32 h -8.449 l 0.175,2.92 v 8.86 l -0.175,2.82 h 8.644 l -0.37,-2.32 h -5.685 v -3.6 h 5.14 l -0.37,-2.31 h -4.77 v -4.05 h 6.23"
         style="fill:#421e55;fill-opacity:1;fill-rule:nonzero;stroke:none;stroke-width:0.1"
         id="path262" /><path
         d="m -585.51884,1273.3469 c 0.435,0.34 0.75,0.87 0.945,1.6 0.194,0.74 0.292,1.71 0.292,2.93 0,1.28 -0.098,2.26 -0.292,2.97 -0.195,0.71 -0.507,1.21 -0.935,1.51 -0.428,0.3 -1.019,0.45 -1.772,0.45 h -2.219 v -9.97 h 2.219 c 0.74,0 1.327,0.17 1.762,0.51 z m 2.453,10 c 0.889,-1.18 1.334,-3 1.334,-5.47 0,-2.47 -0.448,-4.32 -1.343,-5.53 -0.896,-1.22 -2.298,-1.83 -4.206,-1.83 h -4.828 l 0.175,2.92 v 8.86 l -0.175,2.83 h 4.828 c 1.921,0 3.326,-0.59 4.215,-1.78"
         style="fill:#421e55;fill-opacity:1;fill-rule:nonzero;stroke:none;stroke-width:0.1"
         id="path264" /><path
         d="m -570.57684,1272.8369 -0.37,-2.32 h -8.449 l 0.175,2.92 v 8.86 l -0.175,2.83 h 8.644 l -0.37,-2.32 h -5.684 v -3.6 h 5.139 l -0.37,-2.32 h -4.769 v -4.05 h 6.229"
         style="fill:#421e55;fill-opacity:1;fill-rule:nonzero;stroke:none;stroke-width:0.1"
         id="path266" /><path
         d="m -580.67284,1302.0169 c 0.771,0.71 1.157,1.93 1.157,3.67 0,1.69 -0.381,2.89 -1.141,3.6 -0.76,0.7 -2.051,1.06 -3.871,1.06 h -3.309 v -9.39 h 3.245 c 1.842,0 3.149,0.36 3.919,1.06 z m 1.494,11.17 c 1.21,-0.66 2.153,-1.61 2.828,-2.88 0.674,-1.26 1.012,-2.8 1.012,-4.62 0,-1.76 -0.344,-3.29 -1.029,-4.58 -0.686,-1.3 -1.633,-2.28 -2.843,-2.96 -1.21,-0.67 -2.608,-1.01 -4.193,-1.01 h -4.433 v -2.25 l 0.257,-4.82 h -4.53 l 0.29,4.82 v 14.62 l -0.29,4.66 h 8.739 c 1.584,0 2.982,-0.33 4.192,-0.98"
         style="fill:#421e55;fill-opacity:1;fill-rule:nonzero;stroke:none;stroke-width:0.1"
         id="path268" /><path
         d="m -560.68984,1294.3069 c 0.727,0.56 1.263,1.48 1.606,2.75 0.343,1.28 0.514,2.99 0.514,5.16 0,2.1 -0.171,3.77 -0.514,5.01 -0.343,1.24 -0.879,2.14 -1.606,2.7 -0.728,0.55 -1.703,0.83 -2.924,0.83 -1.22,0 -2.195,-0.28 -2.923,-0.83 -0.729,-0.56 -1.264,-1.46 -1.607,-2.7 -0.342,-1.24 -0.513,-2.91 -0.513,-5.01 0,-2.17 0.171,-3.88 0.513,-5.16 0.343,-1.27 0.878,-2.19 1.607,-2.75 0.728,-0.55 1.703,-0.83 2.923,-0.83 1.221,0 2.196,0.28 2.924,0.83 z m -9.831,-1.54 c -1.542,2.14 -2.313,5.29 -2.313,9.45 0,4.11 0.771,7.22 2.313,9.31 1.542,2.1 3.845,3.15 6.907,3.15 3.063,0 5.366,-1.05 6.907,-3.15 1.543,-2.09 2.314,-5.2 2.314,-9.31 0,-4.16 -0.771,-7.31 -2.314,-9.45 -1.541,-2.14 -3.844,-3.21 -6.907,-3.21 -3.062,0 -5.365,1.07 -6.907,3.21"
         style="fill:#421e55;fill-opacity:1;fill-rule:nonzero;stroke:none;stroke-width:0.1"
         id="path270" /><path
         d="m -533.67184,1294.8269 0.257,-4.76 h -6.49 l -6.842,20.12 v -15.3 l 0.256,-4.82 h -4.048 l 0.29,4.82 v 14.62 l -0.29,4.66 h 6.522 l 6.843,-20.11 v 15.39 l -0.289,4.72 h 4.048 l -0.257,-4.72 v -14.62"
         style="fill:#421e55;fill-opacity:1;fill-rule:nonzero;stroke:none;stroke-width:0.1"
         id="path272" /><path
         d="m -513.75384,1310.1869 -0.354,-0.1 -2.988,0.38 h -3.084 v -15.58 l 0.258,-4.82 h -4.53 l 0.289,4.82 v 15.58 h -3.084 l -2.988,-0.38 -0.354,0.1 0.611,3.98 h 15.581 l 0.643,-3.98"
         style="fill:#421e55;fill-opacity:1;fill-rule:nonzero;stroke:none;stroke-width:0.1"
         id="path274" /><path
         d="m -499.90684,1294.3069 c 0.728,0.56 1.263,1.48 1.606,2.75 0.343,1.28 0.515,2.99 0.515,5.16 0,2.1 -0.172,3.77 -0.515,5.01 -0.343,1.24 -0.878,2.14 -1.606,2.7 -0.728,0.55 -1.703,0.83 -2.924,0.83 -1.22,0 -2.195,-0.28 -2.923,-0.83 -0.729,-0.56 -1.264,-1.46 -1.606,-2.7 -0.343,-1.24 -0.514,-2.91 -0.514,-5.01 0,-2.17 0.171,-3.88 0.514,-5.16 0.342,-1.27 0.877,-2.19 1.606,-2.75 0.728,-0.55 1.703,-0.83 2.923,-0.83 1.221,0 2.196,0.28 2.924,0.83 z m -9.831,-1.54 c -1.542,2.14 -2.313,5.29 -2.313,9.45 0,4.11 0.771,7.22 2.313,9.31 1.542,2.1 3.845,3.15 6.907,3.15 3.063,0 5.366,-1.05 6.908,-3.15 1.542,-2.09 2.313,-5.2 2.313,-9.31 0,-4.16 -0.771,-7.31 -2.313,-9.45 -1.542,-2.14 -3.845,-3.21 -6.908,-3.21 -3.062,0 -5.365,1.07 -6.907,3.21"
         style="fill:#421e55;fill-opacity:1;fill-rule:nonzero;stroke:none;stroke-width:0.1"
         id="path276" /><path
         d="m -490.14084,1292.7069 -0.578,3.95 0.45,0.13 c 2.42,-2.1 4.84,-3.15 7.26,-3.15 1.456,0 2.592,0.25 3.405,0.75 0.814,0.51 1.221,1.21 1.221,2.11 0,0.6 -0.155,1.09 -0.465,1.49 -0.311,0.4 -0.836,0.76 -1.574,1.1 -0.74,0.33 -1.816,0.68 -3.229,1.07 -1.693,0.47 -3.02,1.01 -3.984,1.61 -0.964,0.6 -1.666,1.35 -2.104,2.25 -0.439,0.9 -0.659,2.03 -0.659,3.4 0,2.19 0.712,3.91 2.137,5.17 1.424,1.27 3.346,1.9 5.766,1.9 1.435,0 2.827,-0.22 4.176,-0.68 1.35,-0.44 2.443,-1.04 3.278,-1.79 l -0.611,-3.8 -0.482,-0.12 c -0.536,0.72 -1.36,1.32 -2.473,1.78 -1.115,0.46 -2.271,0.69 -3.47,0.69 -1.371,0 -2.405,-0.25 -3.1,-0.74 -0.696,-0.49 -1.045,-1.21 -1.045,-2.15 0,-0.64 0.145,-1.18 0.434,-1.61 0.289,-0.43 0.771,-0.8 1.446,-1.12 0.675,-0.32 1.633,-0.64 2.875,-0.97 1.842,-0.49 3.282,-1.03 4.321,-1.62 1.039,-0.59 1.788,-1.31 2.249,-2.17 0.461,-0.85 0.691,-1.95 0.691,-3.27 0,-2.27 -0.75,-4.04 -2.249,-5.3 -1.5,-1.27 -3.502,-1.9 -6.007,-1.9 -3.064,0 -5.623,1 -7.679,2.99"
         style="fill:#421e55;fill-opacity:1;fill-rule:nonzero;stroke:none;stroke-width:0.1"
         id="path278" /><path
         d="m -555.82384,1261.2969 c -1.467,0.87 -2.532,2.23 -3.196,4.07 -0.664,1.84 -0.996,4.27 -0.996,7.29 0,4.22 0.792,7.35 2.378,9.4 1.584,2.04 4.143,3.07 7.677,3.07 1.35,0 2.452,-0.14 3.31,-0.41 0.856,-0.26 1.713,-0.73 2.57,-1.39 l -0.643,-3.51 -0.642,-0.28 c -0.536,0.6 -1.157,1.02 -1.864,1.28 -0.706,0.26 -1.617,0.39 -2.731,0.39 -1.413,0 -2.543,-0.29 -3.389,-0.87 -0.846,-0.58 -1.467,-1.49 -1.863,-2.73 -0.397,-1.24 -0.594,-2.89 -0.594,-4.95 0,-2.23 0.182,-3.97 0.545,-5.22 0.364,-1.25 0.964,-2.15 1.8,-2.7 0.835,-0.55 2.002,-0.82 3.501,-0.82 1.328,0 2.42,0.14 3.278,0.42 0.856,0.28 1.606,0.74 2.248,1.38 l 0.611,-0.26 -0.836,-3.27 c -1.477,-1.46 -3.244,-2.19 -5.301,-2.19 -2.441,0 -4.396,0.44 -5.863,1.3"
         style="fill:#421e55;fill-opacity:1;fill-rule:nonzero;stroke:none;stroke-width:0.1"
         id="path280" /><path
         d="m -524.09784,1284.6069 -0.257,-4.66 v -10.95 c 0,-3.04 -0.67,-5.3 -2.008,-6.78 -1.339,-1.48 -3.401,-2.22 -6.185,-2.22 -2.762,0 -4.814,0.74 -6.152,2.22 -1.338,1.48 -2.008,3.74 -2.008,6.78 v 10.95 l -0.257,4.66 h 4.562 l -0.289,-4.66 v -10.95 c 0,-1.78 0.326,-3.07 0.98,-3.87 0.653,-0.81 1.707,-1.21 3.164,-1.21 1.457,0 2.516,0.4 3.181,1.21 0.663,0.8 0.996,2.09 0.996,3.87 v 10.95 l -0.29,4.66 h 4.563"
         style="fill:#421e55;fill-opacity:1;fill-rule:nonzero;stroke:none;stroke-width:0.1"
         id="path282" /><path
         d="m -505.40084,1264.3369 -0.61,-3.82 h -13.943 l 0.289,4.82 v 14.61 l -0.289,4.66 h 4.529 l -0.256,-4.66 v -14.61 l 0.064,-1 h 10.216"
         style="fill:#421e55;fill-opacity:1;fill-rule:nonzero;stroke:none;stroke-width:0.1"
         id="path284" /><path
         d="m -489.59484,1280.6269 -0.354,-0.1 -2.988,0.39 h -3.084 v -15.58 l 0.258,-4.82 h -4.53 l 0.288,4.82 v 15.58 h -3.084 l -2.987,-0.39 -0.354,0.1 0.611,3.98 h 15.581 l 0.643,-3.98"
         style="fill:#421e55;fill-opacity:1;fill-rule:nonzero;stroke:none;stroke-width:0.1"
         id="path286" /><path
         d="m -470.31884,1284.6069 -0.257,-4.66 v -10.95 c 0,-3.04 -0.67,-5.3 -2.008,-6.78 -1.339,-1.48 -3.4,-2.22 -6.184,-2.22 -2.763,0 -4.814,0.74 -6.153,2.22 -1.338,1.48 -2.008,3.74 -2.008,6.78 v 10.95 l -0.256,4.66 h 4.561 l -0.289,-4.66 v -10.95 c 0,-1.78 0.326,-3.07 0.98,-3.87 0.653,-0.81 1.708,-1.21 3.165,-1.21 1.456,0 2.516,0.4 3.18,1.21 0.663,0.8 0.996,2.09 0.996,3.87 v 10.95 l -0.289,4.66 h 4.562"
         style="fill:#421e55;fill-opacity:1;fill-rule:nonzero;stroke:none;stroke-width:0.1"
         id="path288" /><path
         d="m -461.90184,1271.4069 h 2.923 c 1.821,0 3.127,0.36 3.92,1.09 0.792,0.73 1.189,1.94 1.189,3.63 0,1.71 -0.381,2.92 -1.141,3.61 -0.761,0.7 -2.061,1.05 -3.904,1.05 h -2.987 z m 13.718,-10.89 h -5.815 l -2.538,4.82 -1.478,2.25 h -3.887 v -2.25 l 0.321,-4.82 h -4.594 l 0.289,4.82 v 14.61 l -0.289,4.66 h 8.417 c 2.613,0 4.61,-0.72 5.991,-2.15 1.382,-1.44 2.073,-3.55 2.073,-6.33 0,-1.82 -0.381,-3.39 -1.141,-4.71 -0.76,-1.31 -1.804,-2.3 -3.132,-2.97 l 2.056,-3.11 3.727,-4.82"
         style="fill:#421e55;fill-opacity:1;fill-rule:nonzero;stroke:none;stroke-width:0.1"
         id="path290" /><path
         d="m -434.49784,1269.7369 -3.149,10.82 -3.052,-10.89 z m 7.036,-9.22 h -4.884 l -0.899,4.82 -0.16,0.57 -8.353,-0.06 -0.161,-0.51 -0.932,-4.82 h -4.337 l 1.606,4.82 4.177,14.45 1.092,4.82 h 5.847 l 1.061,-4.82 4.337,-14.45 1.606,-4.82"
         style="fill:#421e55;fill-opacity:1;fill-rule:nonzero;stroke:none;stroke-width:0.1"
         id="path292" /><path
         d="m -680.41884,1321.5469 c 0,-2.17 -1.753,-3.92 -3.916,-3.92 -2.163,0 -3.917,1.75 -3.917,3.92 0,2.16 1.754,3.91 3.917,3.91 2.163,0 3.916,-1.75 3.916,-3.91"
         style="fill:#421e55;fill-opacity:1;fill-rule:nonzero;stroke:none;stroke-width:0.1"
         id="path294" /><path
         d="m -680.41884,1321.5469 c 0,-2.17 -1.753,-3.92 -3.916,-3.92 -2.163,0 -3.917,1.75 -3.917,3.92 0,2.16 1.754,3.91 3.917,3.91 2.163,0 3.916,-1.75 3.916,-3.91 z"
         style="fill:none;stroke:#421e56;stroke-width:0.205525;stroke-linecap:butt;stroke-linejoin:miter;stroke-miterlimit:10;stroke-dasharray:none;stroke-opacity:1"
         id="path296" /></g></g></svg>
