<?xml version="1.0" encoding="UTF-8"?>
<svg id="Camada_1" data-name="Camada 1" xmlns="http://www.w3.org/2000/svg" version="1.1" xmlns:xlink="http://www.w3.org/1999/xlink" viewBox="0 0 720 720">
  <defs>
    <style>
      .cls-1 {
        fill: #ff3a21;
      }

      .cls-1, .cls-2 {
        stroke-width: 0px;
      }

      .cls-2 {
        fill: #fff;
      }
    </style>
  </defs>
  <path id="goal_background" data-name="goal background" class="cls-1" d="M-1.1-1.1h722.2v722.2H-1.1V-1.1Z"/>
  <g id="ENG_text_graphics" data-name="ENG text graphics">
    <path class="cls-2" d="M189.2,61.6h9.5v52.6h-9.5v-52.6ZM205.7,96.9v-17.7c0-11.3,3.4-18.2,15-18.2s14.6,5.6,14.6,15.3v2.7h-9.2v-3c0-5.1-.5-8.1-5.3-8.1s-5.5,4.1-5.5,8.9v22c0,5.5,1,8.9,5.7,8.9s5.8-3.6,5.8-9.4v-4.9h-5.6v-6h14.3v26.7h-6.2l-.6-5.1c-1.3,3.7-5,6.1-8.9,5.8-10.4,0-14-7-14-18.1ZM242.1,97.2v-35.6h9.4v36.7c0,5,.6,9.5,5.5,9.5s5.5-4.5,5.5-9.5v-36.7h9.3v35.6c0,11-3,17.7-14.8,17.7s-14.8-6.7-14.8-17.7ZM286.6,61.6h10.3l10.5,52.6h-8.9l-2.1-12.2h-9.2l-2.1,12.2h-9l10.5-52.6ZM295.4,96l-3.6-22.1-3.6,22.1h7.1ZM312.3,61.6h9.6v46.1h12.8v6.6h-22.4v-52.7ZM339.4,61.6h12.4c12.8,0,16.7,5.1,16.7,16.4v19.2c0,11.6-4,17.1-16.3,17.1h-12.8v-52.6ZM351.9,107.6c6.6,0,6.8-3.5,6.8-10.1v-20.2c0-6.3-.6-8.9-7-8.9h-2.9v39.1h3ZM382.7,61.6h10.3l10.5,52.6h-8.9l-2.1-12.2h-9.2l-2.1,12.2h-9l10.5-52.6ZM391.5,96l-3.6-22.1-3.6,22.1h7.1ZM408.5,61.6h12.4c12.8,0,16.7,5.1,16.7,16.4v19.2c0,11.6-4,17.1-16.3,17.1h-12.8v-52.6ZM421,107.6c6.6,0,6.8-3.5,6.8-10.1v-20.2c0-6.3-.6-8.9-7-8.9h-2.8v39.1h3ZM444.3,61.6h22.1v6.8h-12.6v15.1h9.9v6.7h-9.9v17.5h12.7v6.6h-22.2v-52.6ZM189,147.6h12.4c12.8,0,16.7,5.1,16.7,16.4v19.2c0,11.6-4,17.1-16.3,17.1h-12.8v-52.7ZM201.6,193.6c6.6,0,6.8-3.5,6.8-10.1v-20.2c0-6.3-.7-8.9-7-8.9h-2.9v39.1h3ZM224.8,147.6h22.1v6.8h-12.5v15.1h9.9v6.7h-9.9v17.5h12.7v6.6h-22.2v-52.6ZM267,182.9v-17.7c0-11.3,3.5-18.2,15-18.2s14.6,5.6,14.6,15.3v2.7h-9.2v-3c0-5.1-.5-8.1-5.3-8.1s-5.5,4.1-5.5,8.9v22c0,5.5,1,8.9,5.7,8.9s5.8-3.6,5.8-9.4v-4.9h-5.7v-6.1h14.3v26.7h-6.2l-.6-5.1c-1.4,3.4-4,5.9-8.9,5.9-10.4,0-14-6.9-14-18h0ZM303.8,147.6h22.1v6.8h-12.5v15.1h9.9v6.7h-9.9v17.5h12.7v6.6h-22.2v-52.6ZM311,131.5h8l6,12h-6.6l-3.4-7.8-3.3,7.8h-6.5l5.8-12ZM331.3,147.6h6.7l12.8,30v-30h7.9v52.6h-6.4l-12.9-31.5v31.5h-8.2v-52.6ZM366.4,147.6h22.1v6.8h-12.5v15.1h9.9v6.7h-9.9v17.5h12.7v6.6h-22.3v-52.6ZM393.9,147.6h12.7c10.5,0,16.5,3.4,16.5,14s-1.6,10.7-6.5,12.7l7.4,25.9h-9.6l-6.3-24.2h-4.5v24.1h-9.5v-52.6ZM406.5,170.2c5.5,0,7.5-2.4,7.5-8.1s-1.5-7.9-7-7.9h-3.6v16h3ZM428.9,183.8v-19.8c0-10.7,3.9-17,15.2-17s15.1,6.3,15.1,17v19.8c0,10.6-3.9,17.2-15.1,17.2s-15.2-6.6-15.2-17.2h0ZM449.5,186v-24.2c0-4.4-.7-7.7-5.4-7.7s-5.5,3.3-5.5,7.7v24.2c0,4.4.7,7.9,5.5,7.9s5.4-3.5,5.4-7.9ZM525.7,271.8h-90.2c-.6,0-1.1.5-1.1,1.1v30c0,.6.5,1.1,1.1,1.1h35.9l-39.9,39.8c-51.2-40.3-125.4-31.4-165.7,19.9-16.4,20.8-25.2,46.5-25.2,73,0,60,44.9,109.6,102.9,117.1v34.5h-35.6c-.6,0-1.1.5-1.2,1.1,0,0,0,0,0,0v32.1c0,.6.5,1.1,1.1,1.1,0,0,0,0,0,0h35.6v34c0,.6.5,1.1,1.1,1.2,0,0,0,0,0,0h32.1c.6,0,1.2-.5,1.2-1.1,0,0,0,0,0,0v-34h35.6c.6,0,1.1-.5,1.1-1.1,0,0,0,0,0,0v-32.1c0-.6-.5-1.1-1.1-1.1h-35.6v-35.1c64.3-10.5,107.9-71.2,97.4-135.5-2.9-17.6-9.7-34.3-20-48.9l39.3-39.3v33.5c0,.6.5,1.1,1.2,1.1h30c.6,0,1.2-.5,1.2-1.1v-90.2c0-.6-.5-1.1-1.2-1.1M358.8,523.7c-48,0-86.9-38.9-86.9-86.9,0-48,38.9-86.9,86.9-86.9,48,0,86.9,38.9,86.9,86.9h0c0,48-38.9,86.9-86.9,86.9"/>
    <path class="cls-2" d="M411.8,401.1h-105.4c-.6,0-1.1.4-1.1,1v25.5c0,.6.5,1.1,1.1,1.1,0,0,0,0,0,0h105.4c.6,0,1.1-.4,1.2-1,0,0,0,0,0,0v-25.5c0-.6-.6-1-1.2-1M411.8,446.7h-105.4c-.6,0-1.1.5-1.1,1.1v25.5c0,.6.6,1,1.1,1h105.4c.6,0,1.1-.4,1.2-1v-25.5c0-.6-.5-1.1-1.2-1.1,0,0,0,0,0,0"/>
  </g>
  <image width="448" height="994" transform="translate(52.3 35.3) scale(.2)" xlink:href="SDG-5-1.png"/>
</svg>